<svg xmlns="http://www.w3.org/2000/svg" width="30" viewBox="0 0 30 22.5"><defs><style>.a{fill:#dff3fd;}.b{fill:#b2e2f9;}.c{fill:#81d1f5;}</style></defs><path class="a" d="M52.874.476,40.789,11.052a1.448,1.448,0,0,1-1.9,0L26.8.476A3.7,3.7,0,0,1,28.587,0h22.5A3.7,3.7,0,0,1,52.874.476Z" transform="translate(-24.837)"/><path class="b" d="M283.654,25.992v15a3.659,3.659,0,0,1-.483,1.8L273.7,32.2l9.368-8.2A3.715,3.715,0,0,1,283.654,25.992Z" transform="translate(-253.654 -22.242)"/><path class="c" d="M50.655,163.53a3.742,3.742,0,0,1-1.978.579h-22.5a3.7,3.7,0,0,1-1.978-.579l9.595-10.73,3.018,2.644a.936.936,0,0,0,.615.234.9.9,0,0,0,.615-.234L41.06,152.8Z" transform="translate(-22.428 -141.609)"/><path class="b" d="M9.954,32.2l-9.47,10.6A3.659,3.659,0,0,1,0,40.992v-15A3.715,3.715,0,0,1,.586,24Z" transform="translate(0 -22.242)"/></svg>