<svg xmlns="http://www.w3.org/2000/svg" width="30" viewBox="0 0 30 30"><defs><style>.a{fill:#fff;}.b{fill:#28b7ea;}</style></defs><ellipse class="a" cx="11.708" cy="11.708" rx="11.708" ry="11.708" transform="translate(3.292 3.75)"/><g transform="translate(0 0)"><path class="b" d="M28.75,17.167A12.337,12.337,0,0,0,28.917,15,13.915,13.915,0,0,0,15,1.083a12.337,12.337,0,0,0-2.167.167A8.419,8.419,0,0,0,1.25,12.833,12.337,12.337,0,0,0,1.083,15,13.915,13.915,0,0,0,15,28.917a12.337,12.337,0,0,0,2.167-.167A8.419,8.419,0,0,0,28.75,17.167Zm-7.125,4.167a6.074,6.074,0,0,1-2.583,2,10.558,10.558,0,0,1-4,.708,9.335,9.335,0,0,1-4.583-1,5.651,5.651,0,0,1-2.083-1.875,4.008,4.008,0,0,1-.792-2.292,1.427,1.427,0,0,1,.5-1.125,1.664,1.664,0,0,1,1.25-.458,1.523,1.523,0,0,1,1.042.375,2.586,2.586,0,0,1,.708,1.083,10.211,10.211,0,0,0,.75,1.375A2.94,2.94,0,0,0,13,21.042a4.357,4.357,0,0,0,1.958.333,4.835,4.835,0,0,0,2.708-.708,2.111,2.111,0,0,0,1.042-1.75,1.852,1.852,0,0,0-.542-1.375,3.771,3.771,0,0,0-1.458-.792,18.831,18.831,0,0,0-2.417-.583,17.106,17.106,0,0,1-3.375-1.042A5.061,5.061,0,0,1,8.75,13.5a4.021,4.021,0,0,1-.792-2.542,4.347,4.347,0,0,1,.833-2.583,5.738,5.738,0,0,1,2.458-1.75A10.479,10.479,0,0,1,15.042,6a9.151,9.151,0,0,1,3,.417,6.5,6.5,0,0,1,2.083,1.042,5.558,5.558,0,0,1,1.25,1.417,3.164,3.164,0,0,1,.375,1.458,1.645,1.645,0,0,1-.5,1.167,1.732,1.732,0,0,1-1.25.542,1.559,1.559,0,0,1-1.042-.333,3.451,3.451,0,0,1-.75-1A4.073,4.073,0,0,0,17,9.208a3.575,3.575,0,0,0-2.25-.542,4.3,4.3,0,0,0-2.333.583,1.623,1.623,0,0,0-.875,1.375,1.308,1.308,0,0,0,.292.875,2.194,2.194,0,0,0,.833.625,4.86,4.86,0,0,0,1.083.417c.375.083.958.25,1.792.458,1.042.208,2,.5,2.875.75a12.106,12.106,0,0,1,2.208,1,4.4,4.4,0,0,1,1.417,1.5,4.722,4.722,0,0,1,.5,2.25A5.209,5.209,0,0,1,21.625,21.333Z" transform="translate(0 0)"/></g></svg>