<svg xmlns="http://www.w3.org/2000/svg" width="30" height="30" viewBox="0 0 30 30"><defs><style>.a{fill:#4daf4f;}.b{fill:#fafbfc;}</style></defs><path class="a" d="M14.97,0h0a14.993,14.993,0,0,0-12.1,23.82L1.018,29.4l5.749-1.86A15,15,0,1,0,14.97,0Z"/><path class="b" d="M27.925,25.74a4.19,4.19,0,0,1-2.934,2.1c-.778.18-1.8.3-5.269-1.14-4.371-1.8-7.246-6.3-7.425-6.6a8.455,8.455,0,0,1-1.8-4.5,4.836,4.836,0,0,1,1.557-3.66,2.236,2.236,0,0,1,1.557-.54h.479c.419,0,.659.06.958.72.359.9,1.257,3,1.317,3.24a.836.836,0,0,1,.06.84,1.7,1.7,0,0,1-.479.66c-.24.24-.419.48-.659.72a.774.774,0,0,0-.18.96,12.564,12.564,0,0,0,2.455,3A10.418,10.418,0,0,0,21.1,23.7a.914.914,0,0,0,1.078-.18,12.991,12.991,0,0,0,1.2-1.56.8.8,0,0,1,1.078-.3c.419.12,2.515,1.2,2.994,1.44.419.24.719.3.838.54A6.472,6.472,0,0,1,27.925,25.74Z" transform="translate(-4.213 -4.56)"/></svg>