<svg xmlns="http://www.w3.org/2000/svg" height="100" viewBox="0 0 88.281 100"><defs><style>.a{fill:#1d2657;}.b{fill:#f47c20;}</style></defs><g transform="translate(0.238)"><path class="a" d="M66.309,31.692A15.846,15.846,0,1,0,50.4,15.846,15.9,15.9,0,0,0,66.309,31.692Z" transform="translate(-18.669)"/><path class="a" d="M37.219,79.837a9.484,9.484,0,0,0,3.283.631H75.1a14.548,14.548,0,0,1-1.7-6.818A14.368,14.368,0,0,1,80.274,61.34a15.967,15.967,0,0,0-1.389-.821C73.645,57.678,66.764,56.1,59.378,56.1c-7.323,0-14.268,1.578-19.508,4.419-5.366,2.9-8.27,6.818-8.27,11.048A8.961,8.961,0,0,0,37.219,79.837Z" transform="translate(-11.738 -20.683)"/><path class="a" d="M84.066,112.478a2.59,2.59,0,0,0-.694-.063,5.012,5.012,0,0,0-2.462.694l-8.9,4.924a5.207,5.207,0,0,1-1.641.631H70.3l-5.429,1.452a1.34,1.34,0,0,0-.821.631,1.425,1.425,0,0,0-.126,1.01,5.472,5.472,0,0,1-.063,3.346c-.379,1.136-1.515,2.652-4.419,3.472a16.681,16.681,0,0,1-4.293.505,50.32,50.32,0,0,1-7.449-.694,55.514,55.514,0,0,0-7.008-.631,10.5,10.5,0,0,0-4.419.758,1.189,1.189,0,0,1-.505.126,1.167,1.167,0,0,1-1.073-.694,1.232,1.232,0,0,1,.568-1.578,12.372,12.372,0,0,1,5.492-1.01,59.418,59.418,0,0,1,7.26.631h0a57.449,57.449,0,0,0,7.134.631,11.652,11.652,0,0,0,3.6-.442c1.515-.442,2.462-1.073,2.778-1.957a3.267,3.267,0,0,0,.126-1.389,4.191,4.191,0,0,0-2.588-3.283c-3.472-1.515-10.1-2.146-15.088-2.146-1.326,0-2.525.063-3.409.126h-.505a4.489,4.489,0,0,1-2.02-.442L29.521,113.3a30.049,30.049,0,0,0-13.447-3.6c-6.124,0-9.343,2.525-9.722,2.841a.94.94,0,0,1-.568.253l-4.924.947a1.453,1.453,0,0,0-.884.568,1.463,1.463,0,0,0-.189,1.01l3.535,19.066a1.346,1.346,0,0,0,1.263,1.01H4.71l6.124-.694h.316c.189,0,17.74,3.093,26.894,5.366a12.453,12.453,0,0,0,3.03.379,11.686,11.686,0,0,0,4.419-.821l18.056-6.692a19.659,19.659,0,0,0,5.177-2.841L83.94,118.475c.063-.063.126-.063.126-.126.631-.568,2.4-2.525,1.641-4.482C85.771,113.109,85.077,112.667,84.066,112.478Z" transform="translate(0 -40.445)"/><path class="b" d="M102.2,77.006a11.577,11.577,0,0,0,2.21,6.818,11.694,11.694,0,0,0,9.6,4.987,11.806,11.806,0,1,0,0-23.611,11.268,11.268,0,0,0-5.24,1.263A11.7,11.7,0,0,0,102.2,77.006Zm3.409-.694a1.013,1.013,0,0,1,.821-1.01l1.452-.316.442-1.01-.821-1.2a1.046,1.046,0,0,1,.126-1.263l.947-.947a1.046,1.046,0,0,1,1.263-.126l1.263.821,1.01-.442.063-.316.253-1.136a1.024,1.024,0,0,1,1.01-.821h1.326a1.013,1.013,0,0,1,1.01.821l.316,1.452,1.01.442,1.263-.821a1.046,1.046,0,0,1,1.263.126l.947.947a1.046,1.046,0,0,1,.126,1.263l-.821,1.2.442,1.01,1.452.316a1.024,1.024,0,0,1,.821,1.01v1.326a1.013,1.013,0,0,1-.821,1.01l-1.452.316-.442,1.01.821,1.263a1.046,1.046,0,0,1-.126,1.263l-.947.947a1.046,1.046,0,0,1-1.263.126l-1.263-.821h0l-1.01.442-.316,1.452a1.079,1.079,0,0,1-1.01.821h-1.326a1.013,1.013,0,0,1-1.01-.821l-.316-1.452-1.01-.442-1.263.821a1.046,1.046,0,0,1-1.263-.126L108.134,83l-.505-.505a1.046,1.046,0,0,1-.126-1.263l.821-1.263h0l-.442-1.01-1.452-.316a1.079,1.079,0,0,1-.821-1.01Z" transform="translate(-37.767 -24.038)"/><path class="b" d="M116.8,84.434a3.186,3.186,0,0,0,2.146.758,3.346,3.346,0,1,0,0-6.692,4.263,4.263,0,0,0-.884.126,3.389,3.389,0,0,0-2.462,3.22A3.18,3.18,0,0,0,116.8,84.434Z" transform="translate(-42.708 -28.942)"/></g></svg>