<svg xmlns="http://www.w3.org/2000/svg" height="100" viewBox="0 0 83.771 100"><defs><style>.a{fill:#1d2657;}.b{fill:#f47c20;}</style></defs><circle class="a" cx="11.226" cy="11.226" r="11.226" transform="translate(57.108 0)"/><circle class="a" cx="11.226" cy="11.226" r="11.226" transform="translate(4.149 0.427)"/><path class="b" d="M74.933,58.428A6.536,6.536,0,0,0,68.4,51.9H46.928A6.536,6.536,0,0,0,40.4,58.428v27.7a6.536,6.536,0,0,0,6.528,6.528h.183V115.17a5.052,5.052,0,0,0,5.064,5.064H63.219a5.052,5.052,0,0,0,5.064-5.064V92.657h.183a6.536,6.536,0,0,0,6.528-6.528v-27.7Z" transform="translate(-15.751 -20.234)"/><circle class="b" cx="12.63" cy="12.63" r="12.63" transform="translate(27.368 6.277) rotate(-9.218)"/><path class="a" d="M20.622,81.84V54.14a10.617,10.617,0,0,1,8.847-10.433,12.472,12.472,0,0,1-1.525-2.013,6.009,6.009,0,0,0-2.929-.793H5.857A5.859,5.859,0,0,0,0,46.757v24.71a5.859,5.859,0,0,0,5.857,5.857H6.04V97.4a4.44,4.44,0,0,0,4.454,4.454h9.823A4.44,4.44,0,0,0,24.771,97.4V90.381A11.029,11.029,0,0,1,20.622,81.84Z" transform="translate(0 -15.946)"/><path class="a" d="M112.651,40.2h-19.1a5.875,5.875,0,0,0-2.563.61A15.9,15.9,0,0,1,89.1,43.434a10.569,10.569,0,0,1,8.847,10.433v27.7a10.489,10.489,0,0,1-4.21,8.42v6.65a4.44,4.44,0,0,0,4.454,4.454h9.823a4.44,4.44,0,0,0,4.454-4.454V76.564h.183a5.859,5.859,0,0,0,5.857-5.857V46.057A5.859,5.859,0,0,0,112.651,40.2Z" transform="translate(-34.738 -15.673)"/></svg>