<svg xmlns="http://www.w3.org/2000/svg" height="100" viewBox="0 0 113.774 100"><defs><style>.a{fill:#1d2657;}.b{fill:#f47c20;}</style></defs><path class="a" d="M5.855,55.846H42.582l6.188-13.906V15.527A3.123,3.123,0,0,0,45.642,12.4H3.127A3.123,3.123,0,0,0,0,15.527V98.96a3.123,3.123,0,0,0,3.127,3.127H45.642a3.123,3.123,0,0,0,3.127-3.127V96.3L33.733,89.646a5.489,5.489,0,0,1-2.794-7.252L41.45,58.641H5.855a1.4,1.4,0,1,1,0-2.794ZM32.4,21.981a4.14,4.14,0,1,1,0,5.855A4.177,4.177,0,0,1,32.4,21.981ZM22.289,32.16a4.14,4.14,0,1,1,0,5.855A4.177,4.177,0,0,1,22.289,32.16ZM12.109,42.274a4.14,4.14,0,1,1,0,5.855A4.177,4.177,0,0,1,12.109,42.274Zm9.381,33.6a4.14,4.14,0,1,1,0,5.855A4.177,4.177,0,0,1,21.49,75.873Z" transform="translate(0 -4.15)"/><path class="b" d="M130.889,19.295a4.76,4.76,0,0,0-2.595-2.728L91.768.4a5.339,5.339,0,0,0-2-.4,4.958,4.958,0,0,0-4.524,2.927L52.579,76.913a4.917,4.917,0,0,0,2.528,6.52L91.635,99.6a5.092,5.092,0,0,0,2,.4,4.5,4.5,0,0,0,2.661-.8,5.075,5.075,0,0,0,1.8-2.129l32.668-73.985A4.711,4.711,0,0,0,130.889,19.295ZM90.9,29.741a3.792,3.792,0,0,1,1.464-.266,4.14,4.14,0,0,1,1.53,7.984,3.793,3.793,0,0,1-1.464.266,4.145,4.145,0,0,1-3.859-2.661A4.048,4.048,0,0,1,90.9,29.741Zm-18.1,48.17a3.793,3.793,0,0,1-1.464.266,4.145,4.145,0,0,1-3.859-2.661,4.1,4.1,0,0,1,2.329-5.323,3.793,3.793,0,0,1,1.464-.266,4.145,4.145,0,0,1,3.859,2.661A4.048,4.048,0,0,1,72.806,77.911Zm7.053-15.9a3.9,3.9,0,0,1-1.53.266,4.145,4.145,0,0,1-3.859-2.661A4.1,4.1,0,0,1,76.8,54.291a3.792,3.792,0,0,1,1.464-.266,4.145,4.145,0,0,1,3.859,2.661A4.018,4.018,0,0,1,79.858,62.009Zm9.315,23.154a3.792,3.792,0,0,1-1.464.266,4.145,4.145,0,0,1-3.859-2.661,4.1,4.1,0,0,1,2.329-5.323,3.9,3.9,0,0,1,1.53-.266,4.126,4.126,0,0,1,1.464,7.984Zm7.053-15.9a3.793,3.793,0,0,1-1.464.266,4.14,4.14,0,0,1-1.53-7.984,3.9,3.9,0,0,1,1.53-.266,4.126,4.126,0,0,1,1.464,7.984Zm13.639-11.244a1.3,1.3,0,0,1-1.264.8.717.717,0,0,1-.532-.133L74.2,43.779a1.391,1.391,0,0,1-.732-1.8,1.3,1.3,0,0,1,1.264-.8,1.253,1.253,0,0,1,.532.133l33.866,14.97A1.23,1.23,0,0,1,109.865,58.017ZM111.2,30.739a3.793,3.793,0,0,1-1.464.266,4.14,4.14,0,0,1-1.53-7.984,3.793,3.793,0,0,1,1.464-.266,4.14,4.14,0,0,1,1.53,7.984Z" transform="translate(-17.45)"/></svg>