<?xml version="1.0" encoding="utf-8"?>
<!-- Generator: Adobe Illustrator 22.1.0, SVG Export Plug-In . SVG Version: 6.00 Build 0)  -->
<svg version="1.1" id="Layer_1" xmlns="http://www.w3.org/2000/svg" xmlns:xlink="http://www.w3.org/1999/xlink" x="0px" y="0px"
	 width="243" height="90" viewBox="0 0 243 90" style="enable-background:new 0 0 243 90;" xml:space="preserve">
<style type="text/css">
	.st0{enable-background:new    ;}
	.st1{fill:#FFFFFF;}
	.st2{fill:#DBA111;}
	.st3{fill:#034694;}
	.st4{fill:#D1D3D4;}
	.st5{fill:#ED1C24;}
	.st6{fill:#6A7AB5;}
	.st7{fill:none;}
</style>
<g transform="translate(-360 -2238)">
	<g class="st0">
		<path class="st1" d="M481,2265.9c0,1.4-0.5,2.6-1.5,3.3s-2.4,1.2-4.2,1.2h-1.7v5.6H472v-14.3h3.7
			C479.2,2261.7,481,2263.1,481,2265.9z M473.6,2269h1.5c1.5,0,2.5-0.2,3.2-0.7s1-1.2,1-2.3c0-0.9-0.3-1.6-0.9-2.1s-1.6-0.7-2.9-0.7
			h-1.9V2269z"/>
		<path class="st1" d="M490.3,2276l-0.3-1.5h-0.1c-0.5,0.7-1.1,1.1-1.6,1.4s-1.2,0.4-2,0.4c-1.1,0-1.9-0.3-2.5-0.8s-0.9-1.3-0.9-2.3
			c0-2.2,1.7-3.3,5.2-3.4l1.8-0.1v-0.7c0-0.8-0.2-1.5-0.5-1.9s-0.9-0.6-1.7-0.6c-0.9,0-1.9,0.3-3,0.8l-0.5-1.2
			c0.5-0.3,1.1-0.5,1.7-0.7s1.3-0.2,1.9-0.2c1.3,0,2.2,0.3,2.8,0.8s0.9,1.5,0.9,2.7v7.3H490.3z M486.7,2274.9c1,0,1.8-0.3,2.4-0.8
			s0.9-1.3,0.9-2.3v-1l-1.6,0.1c-1.3,0-2.2,0.2-2.8,0.6s-0.9,0.9-0.9,1.7c0,0.6,0.2,1,0.5,1.3S486,2274.9,486.7,2274.9z"/>
		<path class="st1" d="M499.8,2265.1c0.5,0,0.9,0,1.3,0.1l-0.2,1.5c-0.4-0.1-0.8-0.1-1.2-0.1c-0.9,0-1.6,0.4-2.2,1.1
			s-0.9,1.6-0.9,2.6v5.7h-1.6v-10.7h1.3l0.2,2h0.1c0.4-0.7,0.9-1.2,1.4-1.6S499.1,2265.1,499.8,2265.1z"/>
		<path class="st1" d="M506.5,2274.9c0.3,0,0.6,0,0.8-0.1s0.5-0.1,0.6-0.1v1.2c-0.2,0.1-0.4,0.2-0.8,0.2s-0.6,0.1-0.9,0.1
			c-2.1,0-3.1-1.1-3.1-3.3v-6.4h-1.5v-0.8l1.5-0.7l0.7-2.3h0.9v2.5h3.1v1.3h-3.1v6.3c0,0.6,0.2,1.1,0.5,1.5S506,2274.9,506.5,2274.9
			z"/>
		<path class="st1" d="M517.4,2276v-6.9c0-0.9-0.2-1.5-0.6-2s-1-0.6-1.9-0.6c-1.1,0-1.9,0.3-2.5,0.9s-0.8,1.6-0.8,3v5.6h-1.6v-10.7
			h1.3l0.3,1.5h0.1c0.3-0.5,0.8-0.9,1.4-1.2s1.3-0.4,2-0.4c1.3,0,2.3,0.3,2.9,0.9s1,1.6,1,3v7H517.4z"/>
		<path class="st1" d="M526.9,2276.2c-1.6,0-2.8-0.5-3.7-1.4s-1.4-2.3-1.4-4c0-1.7,0.4-3.1,1.3-4.1s2-1.5,3.4-1.5
			c1.3,0,2.4,0.4,3.2,1.3s1.2,2,1.2,3.5v1h-7.4c0,1.3,0.3,2.2,1,2.9s1.5,1,2.5,1c1.2,0,2.3-0.2,3.4-0.7v1.4
			c-0.6,0.2-1.1,0.4-1.6,0.5S527.6,2276.2,526.9,2276.2z M526.5,2266.5c-0.9,0-1.5,0.3-2.1,0.8s-0.8,1.3-0.9,2.3h5.6
			c0-1-0.2-1.8-0.7-2.3S527.3,2266.5,526.5,2266.5z"/>
		<path class="st1" d="M538.5,2265.1c0.5,0,0.9,0,1.3,0.1l-0.2,1.5c-0.4-0.1-0.8-0.1-1.2-0.1c-0.9,0-1.6,0.4-2.2,1.1
			s-0.9,1.6-0.9,2.6v5.7h-1.6v-10.7h1.3l0.2,2h0.1c0.4-0.7,0.9-1.2,1.4-1.6S537.8,2265.1,538.5,2265.1z"/>
		<path class="st1" d="M548.9,2270.1v5.9h-1.7v-14.3h3.9c1.8,0,3,0.3,3.9,1s1.3,1.7,1.3,3c0,1.9-1,3.2-2.9,3.8l3.9,6.4h-2l-3.5-5.9
			H548.9z M548.9,2268.6h2.3c1.2,0,2-0.2,2.6-0.7s0.8-1.2,0.8-2.1c0-0.9-0.3-1.6-0.8-2s-1.5-0.6-2.7-0.6h-2.2V2268.6z"/>
		<path class="st1" d="M563.8,2276.2c-1.6,0-2.8-0.5-3.7-1.4s-1.4-2.3-1.4-4c0-1.7,0.4-3.1,1.3-4.1s2-1.5,3.4-1.5
			c1.3,0,2.4,0.4,3.2,1.3s1.2,2,1.2,3.5v1h-7.4c0,1.3,0.3,2.2,1,2.9s1.5,1,2.5,1c1.2,0,2.3-0.2,3.4-0.7v1.4
			c-0.6,0.2-1.1,0.4-1.6,0.5S564.6,2276.2,563.8,2276.2z M563.4,2266.5c-0.9,0-1.5,0.3-2.1,0.8s-0.8,1.3-0.9,2.3h5.6
			c0-1-0.2-1.8-0.7-2.3S564.3,2266.5,563.4,2266.5z"/>
		<path class="st1" d="M577.5,2273.1c0,1-0.4,1.8-1.1,2.3s-1.8,0.8-3.1,0.8c-1.4,0-2.5-0.2-3.3-0.7v-1.5c0.5,0.3,1.1,0.5,1.7,0.6
			s1.2,0.2,1.7,0.2c0.8,0,1.5-0.1,2-0.4s0.7-0.7,0.7-1.2c0-0.4-0.2-0.8-0.5-1.1s-1.1-0.6-2.1-1c-1-0.4-1.7-0.7-2.1-1
			s-0.7-0.6-0.9-0.9s-0.3-0.8-0.3-1.3c0-0.9,0.4-1.6,1.1-2.1s1.7-0.8,2.9-0.8c1.2,0,2.3,0.2,3.4,0.7l-0.6,1.3
			c-1.1-0.4-2-0.7-2.9-0.7c-0.8,0-1.3,0.1-1.7,0.4s-0.6,0.6-0.6,1c0,0.3,0.1,0.5,0.2,0.7s0.4,0.4,0.7,0.6s1,0.4,1.9,0.8
			c1.3,0.5,2.1,0.9,2.6,1.4S577.5,2272.4,577.5,2273.1z"/>
		<path class="st1" d="M593.7,2276v-7c0-0.9-0.2-1.5-0.5-1.9s-0.9-0.6-1.7-0.6c-1,0-1.8,0.3-2.2,0.9s-0.7,1.5-0.7,2.7v6h-1.6v-7
			c0-0.9-0.2-1.5-0.5-1.9s-0.9-0.6-1.7-0.6c-1,0-1.8,0.3-2.2,0.9s-0.7,1.6-0.7,3v5.6h-1.6v-10.7h1.3l0.3,1.5h0.1
			c0.3-0.5,0.7-0.9,1.3-1.2s1.2-0.4,1.9-0.4c1.7,0,2.8,0.6,3.3,1.8h0.1c0.3-0.6,0.8-1,1.4-1.3s1.3-0.5,2.1-0.5
			c1.2,0,2.1,0.3,2.7,0.9s0.9,1.6,0.9,3v7H593.7z"/>
		<path class="st1" d="M598.6,2262.4c0-0.4,0.1-0.6,0.3-0.8s0.4-0.3,0.7-0.3c0.3,0,0.5,0.1,0.7,0.3s0.3,0.4,0.3,0.8
			s-0.1,0.6-0.3,0.8s-0.4,0.3-0.7,0.3c-0.3,0-0.5-0.1-0.7-0.3S598.6,2262.8,598.6,2262.4z M600.3,2276h-1.6v-10.7h1.6V2276z"/>
	</g>
	<g class="st0">
		<path class="st1" d="M478.1,2293c-1.6,0-2.8,0.5-3.7,1.6s-1.4,2.5-1.4,4.3c0,1.9,0.4,3.3,1.3,4.3s2.1,1.5,3.7,1.5
			c1,0,2.1-0.2,3.4-0.5v1.5c-1,0.4-2.2,0.6-3.7,0.6c-2.1,0-3.7-0.6-4.9-1.9s-1.7-3.1-1.7-5.4c0-1.5,0.3-2.8,0.8-3.9s1.3-2,2.4-2.6
			s2.3-0.9,3.7-0.9c1.5,0,2.8,0.3,3.9,0.8l-0.7,1.4C480.2,2293.3,479.2,2293,478.1,2293z"/>
		<path class="st1" d="M491.7,2306v-6.9c0-0.9-0.2-1.5-0.6-2s-1-0.6-1.9-0.6c-1.1,0-1.9,0.3-2.5,0.9s-0.8,1.6-0.8,3v5.6h-1.6v-15.2
			h1.6v4.6c0,0.6,0,1-0.1,1.4h0.1c0.3-0.5,0.8-0.9,1.4-1.2s1.3-0.4,2-0.4c1.3,0,2.3,0.3,2.9,0.9s1,1.6,1,3v7H491.7z"/>
		<path class="st1" d="M501.1,2306.2c-1.6,0-2.8-0.5-3.7-1.4s-1.4-2.3-1.4-4c0-1.7,0.4-3.1,1.3-4.1s2-1.5,3.4-1.5
			c1.3,0,2.4,0.4,3.2,1.3s1.2,2,1.2,3.5v1h-7.4c0,1.3,0.3,2.2,1,2.9s1.5,1,2.5,1c1.2,0,2.3-0.2,3.4-0.7v1.4
			c-0.6,0.2-1.1,0.4-1.6,0.5S501.9,2306.2,501.1,2306.2z M500.7,2296.5c-0.9,0-1.5,0.3-2.1,0.8s-0.8,1.3-0.9,2.3h5.6
			c0-1-0.2-1.8-0.7-2.3S501.5,2296.5,500.7,2296.5z"/>
		<path class="st1" d="M509.5,2306h-1.6v-15.2h1.6V2306z"/>
		<path class="st1" d="M519.8,2303.1c0,1-0.4,1.8-1.1,2.3s-1.8,0.8-3.1,0.8c-1.4,0-2.5-0.2-3.3-0.7v-1.5c0.5,0.3,1.1,0.5,1.7,0.6
			s1.2,0.2,1.7,0.2c0.8,0,1.5-0.1,2-0.4s0.7-0.7,0.7-1.2c0-0.4-0.2-0.8-0.5-1.1s-1.1-0.6-2.1-1c-1-0.4-1.7-0.7-2.1-1
			s-0.7-0.6-0.9-0.9s-0.3-0.8-0.3-1.3c0-0.9,0.4-1.6,1.1-2.1s1.7-0.8,2.9-0.8c1.2,0,2.3,0.2,3.4,0.7l-0.6,1.3
			c-1.1-0.4-2-0.7-2.9-0.7c-0.8,0-1.3,0.1-1.7,0.4s-0.6,0.6-0.6,1c0,0.3,0.1,0.5,0.2,0.7s0.4,0.4,0.7,0.6s1,0.4,1.9,0.8
			c1.3,0.5,2.1,0.9,2.6,1.4S519.8,2302.4,519.8,2303.1z"/>
		<path class="st1" d="M527,2306.2c-1.6,0-2.8-0.5-3.7-1.4s-1.4-2.3-1.4-4c0-1.7,0.4-3.1,1.3-4.1s2-1.5,3.4-1.5
			c1.3,0,2.4,0.4,3.2,1.3s1.2,2,1.2,3.5v1h-7.4c0,1.3,0.3,2.2,1,2.9s1.5,1,2.5,1c1.2,0,2.3-0.2,3.4-0.7v1.4
			c-0.6,0.2-1.1,0.4-1.6,0.5S527.7,2306.2,527,2306.2z M526.5,2296.5c-0.9,0-1.5,0.3-2.1,0.8s-0.8,1.3-0.9,2.3h5.6
			c0-1-0.2-1.8-0.7-2.3S527.4,2296.5,526.5,2296.5z"/>
		<path class="st1" d="M540.2,2306l-0.3-1.5h-0.1c-0.5,0.7-1.1,1.1-1.6,1.4s-1.2,0.4-2,0.4c-1.1,0-1.9-0.3-2.5-0.8s-0.9-1.3-0.9-2.3
			c0-2.2,1.7-3.3,5.2-3.4l1.8-0.1v-0.7c0-0.8-0.2-1.5-0.5-1.9s-0.9-0.6-1.7-0.6c-0.9,0-1.9,0.3-3,0.8l-0.5-1.2
			c0.5-0.3,1.1-0.5,1.7-0.7s1.3-0.2,1.9-0.2c1.3,0,2.2,0.3,2.8,0.8s0.9,1.5,0.9,2.7v7.3H540.2z M536.6,2304.9c1,0,1.8-0.3,2.4-0.8
			s0.9-1.3,0.9-2.3v-1l-1.6,0.1c-1.3,0-2.2,0.2-2.8,0.6s-0.9,0.9-0.9,1.7c0,0.6,0.2,1,0.5,1.3S535.9,2304.9,536.6,2304.9z"/>
		<path class="st1" d="M551.9,2306h-1.7v-14.3h8v1.5h-6.3v5.2h5.9v1.5h-5.9V2306z"/>
		<path class="st1" d="M566.7,2293c-1.6,0-2.8,0.5-3.7,1.6s-1.4,2.5-1.4,4.3c0,1.9,0.4,3.3,1.3,4.3s2.1,1.5,3.7,1.5
			c1,0,2.1-0.2,3.4-0.5v1.5c-1,0.4-2.2,0.6-3.7,0.6c-2.1,0-3.7-0.6-4.9-1.9s-1.7-3.1-1.7-5.4c0-1.5,0.3-2.8,0.8-3.9s1.3-2,2.4-2.6
			s2.3-0.9,3.7-0.9c1.5,0,2.8,0.3,3.9,0.8l-0.7,1.4C568.8,2293.3,567.7,2293,566.7,2293z"/>
	</g>
	<g transform="translate(360 2238)">
		<path class="st2" d="M90,45c0,24.9-20.1,45-45,45S0,69.9,0,45S20.1,0,45,0S90,20.1,90,45"/>
		<path class="st3" d="M88.5,45C88.5,69,69,88.5,45,88.5S1.5,69,1.5,45S21,1.5,45,1.5S88.5,21,88.5,45"/>
		<path class="st2" d="M76,45c0,17.1-13.9,31-31,31S14,62.1,14,45s13.9-31,31-31S76,27.9,76,45"/>
		<path class="st1" d="M75.1,45c0,16.6-13.5,30.1-30.1,30.1S14.9,61.6,14.9,45c0-16.6,13.5-30.1,30.1-30.1h0
			C61.6,14.9,75.1,28.4,75.1,45"/>
		<path class="st2" d="M19.2,70.9l1.2,1.1l0.8-0.8L18.8,69l-0.3,0.3l-3.1,3.3l1.2,1.1c0,0,1-1.1,1.4-1.4l1,1l0.8-0.8l-1-1L19.2,70.9
			"/>
		<path class="st2" d="M24.9,74.7c-0.2-1.3-1.5-2.2-2.8-2c-1.4,0.3-2.4,1.7-2.2,3.1c0.2,1.3,1.5,2.2,2.8,2c0.7-0.1,1.3-0.5,1.7-1.1
			c0.3-0.5,0.5-1,0.5-1.6C24.9,75,24.9,74.8,24.9,74.7 M21.5,76.4c-0.5-0.4-0.1-1.2,0.2-1.6s0.9-1.1,1.5-0.8c0.6,0.4,0,1.3-0.2,1.6
			S22.1,76.9,21.5,76.4z"/>
		<path class="st2" d="M28.6,75.9c-1.2-0.6-2.7-0.1-3.3,1.1c0,0,0,0.1,0,0.1c-0.3,0.6-0.4,1.4-0.2,2c0.4,1.3,1.8,2,3.1,1.6
			c0.7-0.2,1.2-0.7,1.5-1.4c0.7-1.2,0.3-2.7-0.9-3.4C28.6,76,28.6,76,28.6,75.9 M27.2,79.6c-0.1,0-0.3,0-0.4,0
			c-0.2-0.1-0.4-0.4-0.3-0.6c0-0.4,0.1-0.7,0.3-1c0.2-0.5,0.8-1.3,1.4-1c0.1,0.1,0.3,0.2,0.3,0.3C28.4,78.2,28,79.1,27.2,79.6
			L27.2,79.6z"/>
		<path class="st2" d="M31.2,77.8l-0.2,0.7c0,0,0.6,0.2,0.8,0.3c-0.2,0.6-1.3,3.6-1.3,3.6l1.6,0.5c0,0,1-3,1.3-3.6l0.8,0.3l0.4-1.1
			l-3.1-1.1L31.2,77.8"/>
		<path class="st2" d="M37.6,79.2l-2.1-0.4l-0.1,0.4l-0.9,4.5l2.1,0.5c0.5,0.1,1,0.1,1.4-0.2c0.3-0.2,0.6-0.6,0.6-1
			c0-0.1,0-0.2,0-0.3c0-0.3-0.1-0.6-0.3-0.8c0.3-0.2,0.4-0.5,0.5-0.8c0-0.1,0-0.2,0-0.3C38.9,80,38.4,79.3,37.6,79.2 M37,82.6
			c0,0.1-0.1,0.2-0.1,0.3c-0.1,0.1-0.3,0.1-0.4,0c0,0-0.1,0-0.2,0c0.1-0.3,0.1-0.5,0.2-0.9c0.1,0,0.2,0,0.2,0c0.2,0,0.3,0.2,0.3,0.4
			C37,82.5,37,82.6,37,82.6z M36.9,80.2c0.1,0,0.3,0.1,0.4,0.2c0,0,0,0.1,0,0.1c0,0,0,0.1,0,0.1c0,0.1-0.1,0.3-0.4,0.2
			c0,0,0,0-0.1,0C36.8,80.6,36.8,80.5,36.9,80.2L36.9,80.2z"/>
		<path class="st2" d="M41.5,79.9l-2.3,4.7l1.3,0.1l0.5-1c0.3,0,0.6,0,0.8,0.1c0.1,0.3,0.4,1.1,0.4,1.1l1.7,0.1L42,79L41.5,79.9"/>
		<path class="st2" d="M46.6,83.7l-0.2-3.8l-1.6,0.1l0.2,5l3.3-0.1l0-1.2C48.3,83.6,47.1,83.6,46.6,83.7"/>
		<path class="st2" d="M51.1,83.2c-0.1-0.7-0.6-3.7-0.6-3.7l-0.4,0.1l-1.2,0.2l0.8,4.9l3.3-0.5l-0.2-1.2
			C52.8,82.9,51.6,83.1,51.1,83.2"/>
		<path class="st2" d="M60.6,79.9c0,0.4-0.3,0.8-0.7,0.9c-0.2,0.1-0.4,0.1-0.6,0c-0.4-0.2-0.7-0.5-0.8-0.9c-0.2-0.4-0.2-0.9-0.1-1.3
			c0.1-0.2,0.3-0.4,0.6-0.5c0.3-0.1,0.6,0,1,0.2l0.4,0.2l0.6-1l-0.4-0.2c-0.6-0.4-1.5-0.5-2.2-0.2c-0.6,0.2-1.2,0.7-1.4,1.4
			c-0.3,0.7-0.3,1.4,0,2.1c0.5,1.3,2,2,3.3,1.4c0.9-0.3,1.5-1.1,1.5-2.1l0-0.4l-1.2-0.1L60.6,79.9"/>
		<path class="st2" d="M64.4,78.5c-0.3-0.6-1.8-3.3-1.8-3.3l-0.4,0.2L61.1,76l2.4,4.4l2.9-1.6l-0.6-1C65.8,77.7,64.8,78.3,64.4,78.5
			"/>
		<path class="st2" d="M67.6,71.8L67.2,72l-0.6,0.5l2,2.8c0.1,0.1,0.1,0.2,0.1,0.3c0,0.2-0.2,0.3-0.3,0.4C68.3,76,68.2,76,68.1,76
			c-0.1,0-0.2-0.1-0.3-0.2l-2-2.7l-1.3,1l2,2.7c0.3,0.4,0.6,0.6,1.1,0.7c0.6,0.1,1.1-0.1,1.5-0.5c0.8-0.4,1.1-1.5,0.7-2.3
			c0,0-0.1-0.1-0.1-0.1L67.6,71.8"/>
		<path class="st2" d="M73.7,70.8c-0.3-0.3-0.7-0.5-1.1-0.4c0-0.3-0.2-0.6-0.4-0.8c-0.6-0.6-1.5-0.6-2.1,0c0,0,0,0-0.1,0.1l-1.5,1.5
			l3.5,3.6l1.6-1.5c0.4-0.3,0.6-0.8,0.6-1.3C74.1,71.5,74,71.1,73.7,70.8 M71,70.7c0.1,0.1,0.1,0.1,0.1,0.2c0,0.1-0.1,0.2-0.2,0.3
			l-0.1,0.1c-0.2-0.2-0.3-0.3-0.5-0.5C70.8,70.4,70.9,70.6,71,70.7L71,70.7z M71.9,71.9c0.2-0.2,0.4-0.2,0.6,0c0,0,0,0,0,0
			c0.1,0.1,0.1,0.2,0.2,0.3l0,0c0,0.1-0.1,0.2-0.2,0.3l-0.1,0.1c-0.2-0.2-0.4-0.4-0.6-0.6L71.9,71.9L71.9,71.9z"/>
		<path class="st1" d="M19.2,70.5c0.1,0.1,1.1,1.1,1.1,1.1l0.3-0.4l-1.9-1.8l-0.1,0.1l-2.9,3.1l0.7,0.7c0,0,1.2-1.3,1.4-1.4l1,1
			l0.3-0.4l-1-1L19.2,70.5"/>
		<path class="st1" d="M23.7,73.4c-0.4-0.3-1-0.5-1.6-0.4c-1.3,0.3-2.1,1.5-1.9,2.7c0.2,1.1,1.3,1.9,2.4,1.7c0.6-0.1,1.2-0.5,1.5-1
			c0.3-0.4,0.5-0.9,0.5-1.4c0-0.1,0-0.2,0-0.4C24.5,74.2,24.2,73.7,23.7,73.4 M23.3,75.9c-0.3,0.4-1.1,1.4-1.9,0.8s-0.2-1.7,0.1-2.1
			s1.1-1.4,1.9-0.8S23.6,75.4,23.3,75.9L23.3,75.9z"/>
		<path class="st1" d="M28.4,76.2c-1.1-0.5-2.4-0.1-2.9,1c0,0,0,0.1,0,0.1c-0.3,0.6-0.4,1.2-0.2,1.8c0.4,1.1,1.6,1.7,2.7,1.3
			c0.6-0.2,1.1-0.6,1.3-1.2C29.9,78.2,29.5,76.9,28.4,76.2C28.5,76.3,28.4,76.2,28.4,76.2 M26.6,79.9c-0.9-0.4-0.4-1.6-0.2-2.1
			s0.9-1.6,1.8-1.1c0.2,0.1,0.4,0.3,0.5,0.5c0.1,1.1-0.4,2.2-1.4,2.7C27,80,26.8,80,26.6,79.9L26.6,79.9z"/>
		<path class="st1" d="M31.5,77.9l-0.1,0.4l0.8,0.3c-0.1,0.2-1.3,3.6-1.3,3.6l0.9,0.3c0,0,1.2-3.4,1.3-3.6l0.8,0.3l0.2-0.5l-2.5-0.9
			L31.5,77.9"/>
		<path class="st1" d="M37.5,79.5l-1.8-0.4l0,0.1l-0.9,4.1l1.8,0.4c0.4,0.1,0.8,0.1,1.1-0.1c0.3-0.2,0.4-0.5,0.5-0.8
			c0-0.1,0-0.2,0-0.3c0-0.4-0.2-0.7-0.5-0.9c0.4-0.1,0.7-0.5,0.7-1C38.6,80.1,38.1,79.6,37.5,79.5 M36.9,79.9c0.2,0,0.5,0.2,0.6,0.3
			c0.1,0.1,0.1,0.2,0.1,0.3c0,0.1,0,0.1,0,0.2c0,0.3-0.4,0.6-0.7,0.5c0,0-0.1,0-0.1,0l-0.4-0.1c0-0.2,0.2-1.2,0.3-1.3
			C36.6,79.8,36.9,79.9,36.9,79.9z M36.8,81.7c0.4,0.1,0.6,0.4,0.6,0.7c0,0.1,0,0.1,0,0.2c0,0.2-0.1,0.4-0.3,0.5
			c-0.2,0.1-0.4,0.1-0.6,0.1c0,0-0.3-0.1-0.5-0.1c0-0.2,0.3-1.3,0.3-1.5L36.8,81.7L36.8,81.7z"/>
		<path class="st1" d="M41.8,80.1l-2.1,4.2l0.6,0c0,0,0.4-0.9,0.5-1l1.3,0.1c0,0.1,0.4,1.1,0.4,1.1l1,0.1l-1.5-4.8L41.8,80.1
			 M41.6,81.8c0.1,0.3,0.3,0.9,0.4,1.1L41,82.8L41.6,81.8z"/>
		<path class="st1" d="M46.3,84c0-0.2-0.2-3.8-0.2-3.8H46l-0.9,0l0.2,4.3l2.6-0.1l0-0.5C48,83.9,46.5,84,46.3,84"/>
		<path class="st1" d="M50.9,83.6c0-0.2-0.6-3.7-0.6-3.7l-0.1,0L49.3,80l0.7,4.3l2.6-0.4l-0.1-0.5C52.5,83.3,51,83.5,50.9,83.6"/>
		<path class="st1" d="M60.9,79.9c0,0.6-0.3,1-0.9,1.3c-0.3,0.1-0.6,0.1-0.9,0c-0.5-0.2-0.8-0.6-1-1.1c-0.2-0.5-0.3-1-0.1-1.5
			c0.1-0.3,0.4-0.6,0.7-0.7c0.4-0.1,0.9,0,1.3,0.2l0.1,0.1l0.3-0.4l-0.1-0.1c-0.6-0.4-1.3-0.5-1.9-0.2c-0.6,0.2-1,0.7-1.3,1.2
			c-0.2,0.6-0.2,1.2,0,1.8c0.4,1.1,1.7,1.7,2.9,1.3c0.8-0.3,1.3-1,1.3-1.8l0-0.1l-0.5,0L60.9,79.9"/>
		<path class="st1" d="M64.3,78.9c-0.1-0.2-1.8-3.3-1.8-3.3l-0.1,0.1l-0.8,0.4l2.1,3.8l2.3-1.3l-0.3-0.5
			C65.7,78.1,64.4,78.8,64.3,78.9"/>
		<path class="st1" d="M67.5,72.2L67.5,72.2l-0.4,0.3l1.8,2.5c0.1,0.1,0.2,0.3,0.1,0.5c-0.1,0.2-0.2,0.5-0.4,0.6
			c-0.2,0.1-0.4,0.2-0.6,0.1c-0.2,0-0.4-0.1-0.5-0.3l-1.8-2.5L65,74.1l1.8,2.4c0.2,0.3,0.5,0.5,0.9,0.6c0.5,0,0.9-0.1,1.3-0.4
			c0.7-0.3,0.9-1.2,0.6-1.8c0,0,0-0.1-0.1-0.1L67.5,72.2"/>
		<path class="st1" d="M73.4,71c-0.3-0.3-0.8-0.4-1.2-0.3c0-0.1,0.1-0.2,0.1-0.3c0-0.3-0.1-0.5-0.3-0.7c-0.5-0.5-1.2-0.5-1.7,0
			c0,0,0,0.1-0.1,0.1l-1.3,1.3l3,3.1l1.3-1.3c0.3-0.3,0.5-0.6,0.5-1C73.8,71.5,73.7,71.2,73.4,71 M71.5,70.9c0,0.2-0.1,0.4-0.3,0.5
			l-0.3,0.3c-0.1-0.1-0.8-0.8-0.9-1l0.2-0.2c0.4-0.4,0.8-0.4,1.1-0.1C71.4,70.6,71.5,70.7,71.5,70.9L71.5,70.9z M72.3,73.1
			c-0.1-0.1-0.9-1-1.1-1.1l0.4-0.4c0.3-0.3,0.8-0.3,1.1,0c0,0,0,0,0,0c0.1,0.1,0.2,0.3,0.3,0.5v0c0,0.2-0.1,0.4-0.3,0.6
			C72.7,72.8,72.4,73,72.3,73.1L72.3,73.1z"/>
		<path class="st2" d="M25,15.4l-1.8,0.5l0.2,0.7c0.3,0.8,0,1.6-0.6,2.2c-0.3,0.3-0.7,0.4-1.2,0.4c-0.8-0.1-1.5-0.5-2-1.1
			c-0.6-0.6-1-1.4-1-2.2c0-0.5,0.3-1,0.7-1.3c0.6-0.4,1.3-0.5,1.9-0.2l0.6,0.1l0.4-1.7l-0.6-0.2c-1.3-0.3-2.7,0-3.8,0.9
			c-1.9,1.6-2.1,4.5-0.5,6.4c0,0.1,0.1,0.1,0.1,0.2c1.6,1.9,4.4,2.1,6.3,0.5c1.3-1,1.8-2.7,1.3-4.3L25,15.4"/>
		<path class="st2" d="M29.9,6.2l-1.9,0.9c0,0,1,2.2,1.4,3l-1.6,0.7l-1.4-3L24.1,9l3.7,7.9l2.4-1.2c0,0-1.2-2.4-1.5-3.2
			c0.5-0.2,1-0.5,1.6-0.7l1.5,3.2l2.4-1.2l-3.7-7.9L29.9,6.2"/>
		<path class="st2" d="M38.2,11.1c-0.1-0.6-0.2-1.2-0.4-1.8l2.8-0.6L40.3,7l-2.8,0.6c-0.1-0.5-0.2-1-0.3-1.5l2.9-0.6l-0.4-1.8
			l-0.6,0.1l-4.9,1l1.7,8.6l5.6-1.1l-0.4-1.8C41.2,10.5,39,11,38.2,11.1"/>
		<path class="st2" d="M46.2,3.5l-2.7-0.1l0,0.7l-0.2,8.1l5.7,0.1l0-1.9l-3-0.1L46.2,3.5"/>
		<path class="st2" d="M55,7.9c-0.7-0.5-0.9-0.7-0.8-1c0-0.3,0.3-0.5,0.6-0.5c0,0,0,0,0.1,0c0.3,0.1,0.6,0.2,0.7,0.9l0.1,0.7
			l1.8-0.6l-0.1-0.6c-0.4-1.7-2.2-2.8-3.9-2.3c-0.3,0.1-0.5,0.2-0.8,0.3c-0.6,0.4-1.1,1-1.3,1.7C51,8.3,52.2,9.2,53,9.8
			c0.8,0.6,1,0.8,0.9,1.3c0,0.2-0.1,0.3-0.3,0.4c-0.2,0.1-0.4,0.1-0.5,0.1c-0.4-0.1-0.6-0.3-0.8-0.9L52.1,10l-1.8,0.7l0.2,0.6
			c0.3,1.1,1.3,1.9,2.5,2.1c1.6,0.5,3.2-0.5,3.7-2c0,0,0,0,0,0C57.1,9.5,55.8,8.5,55,7.9"/>
		<path class="st2" d="M61.5,12.6l2.5,1.3l0.8-1.6L62.3,11c0.2-0.5,0.5-0.9,0.7-1.4l2.7,1.4l0.8-1.6l-5.1-2.6l-0.3,0.6l-3.6,7.2
			l5.1,2.6l0.8-1.6l-2.7-1.4C60.9,13.7,61.2,13.1,61.5,12.6"/>
		<path class="st2" d="M71.6,13.4l-8.1,4.2L65,19c0,0,1.3-0.7,1.8-1l1.3,1.1c-0.2,0.5-0.7,2-0.7,2l2.1,1.9L73,12.7L71.6,13.4"/>
		<path class="st1" d="M24.7,15.9l-1,0.3l0.1,0.2c0.3,0.9,0,2-0.7,2.6c-0.4,0.4-0.9,0.6-1.5,0.5c-0.9-0.1-1.7-0.6-2.3-1.3
			c-0.7-0.7-1.1-1.6-1.1-2.5c0.1-0.6,0.4-1.2,0.9-1.6c0.7-0.5,1.5-0.6,2.3-0.3l0.2,0l0.2-0.9l-0.2-0.1c-1.2-0.3-2.4,0-3.4,0.8
			c-1.7,1.5-1.9,4.1-0.4,5.8c0,0,0.1,0.1,0.1,0.1c1.5,1.7,4,1.9,5.7,0.4c1.2-0.9,1.6-2.4,1.2-3.8L24.7,15.9"/>
		<path class="st1" d="M30.1,6.6l-1.5,0.7l1.4,3c-0.3,0.1-2,1-2.4,1.1l-1.4-3l-1.7,0.8l3.4,7.1l1.7-0.8c0,0-1.4-2.9-1.5-3.2l2.4-1.1
			c0.2,0.3,1.5,3.2,1.5,3.2l1.7-0.8l-3.4-7.1L30.1,6.6"/>
		<path class="st1" d="M37.9,11.6c-0.1-0.3-0.5-2.3-0.5-2.6l2.8-0.6l-0.2-0.9l-2.8,0.6c-0.1-0.3-0.4-2-0.5-2.4
			c0.4-0.1,2.9-0.6,2.9-0.6l-0.2-0.9l-4.7,1l1.6,7.7l4.8-1L40.9,11L37.9,11.6"/>
		<path class="st1" d="M45.8,3.9l-1.8,0v0.2l-0.2,7.6l4.8,0.1l0-1l-3-0.1C45.6,10.4,45.8,3.9,45.8,3.9"/>
		<path class="st1" d="M55,6c0.6,0.1,1,0.6,1.1,1.2l0,0.2l1-0.3L57,7c-0.2-1-1-1.8-2-2c-0.7-0.2-1.4-0.1-2,0.3
			c-0.5,0.3-0.9,0.8-1.1,1.4c-0.4,1.5,0.6,2.2,1.4,2.8s1.3,1,1.1,1.8c-0.1,0.3-0.2,0.5-0.5,0.6C53.6,12,53.3,12,53,12
			c-0.6-0.1-1-0.6-1.1-1.2l-0.1-0.2l-1,0.4l0.1,0.2c0.3,1,1.1,1.7,2.1,1.8c1.4,0.4,2.8-0.4,3.2-1.7c0,0,0,0,0,0
			c0.4-1.6-0.6-2.4-1.5-3c-0.7-0.5-1.1-0.9-1-1.5c0.1-0.5,0.6-0.9,1.1-0.8C54.9,6,54.9,6,55,6"/>
		<path class="st1" d="M62.8,9l2.7,1.3l0.4-0.8l-4.3-2.2l-0.1,0.2L58,14.4l4.3,2.2l0.4-0.8l-2.7-1.4c0.2-0.3,1.1-2.1,1.2-2.4
			l2.5,1.3l0.4-0.8c0,0-2.2-1.1-2.5-1.3C61.8,10.9,62.6,9.3,62.8,9"/>
		<path class="st1" d="M71.8,13.8l-7.6,3.9l0.8,0.7l1.8-1l1.7,1.5c-0.1,0.2-0.7,2-0.7,2l1.4,1.3l2.9-8.6L71.8,13.8 M67.8,17l1.8-1
			c-0.2,0.6-0.6,1.6-0.7,2C68.6,17.8,68.1,17.3,67.8,17L67.8,17z"/>
		<path class="st4" d="M66.5,43.8c-0.6-1.6-2.8-2.4-4.8-1.6c-0.8,0.3-1.5,0.8-2,1.5c1.3-3.8,6.8-4.6,6.8-8.2c0-5.9-8.4-4.3-7.2,0
			c0-1.9,3.1-2.3,3.1,0S57,39.3,57,43.2c0,4.3,4.3,4.7,3.8,8.6c-0.2,0.9-0.9,1.5-1.8,1.6c-6.6,0-4.2-8.1-6.5-10.5l0.1-1.7
			c1.2,0.5,2.6-0.1,3.1-1.4c0.4-0.9,0.1-1.9-0.6-2.6c0,1.4-3,1.3-3-1.3c0-3.6,3.4-1.7,3.6-0.9c-0.2-1-0.2-2,0-2.9
			c-1.8,0.6-2-0.5-1.8-0.9c0.2-0.6,0.7-1,1.3-1c0.3,0,0.5,0,0.8,0.1c0.2,0.2,0.4-0.2,0.4,0.1c0.2-0.3,0.1,0.1,0.3-0.2
			c0.3-0.4,0.6-0.8,0.9-1.1l0-0.7l0.5,0.2l0.5-0.8c-0.6-1.1-1.3-0.6-1.9-2c-0.5-0.1-7.7,0.7-7.5-2.2c-0.6,0-2,0.3-1.1,1.5
			c-0.7,0.1-1.2-0.7-2.2,1.4c1.3-0.2,0.6,1.2,0.6,1.6c0,2.6-3.5,2.6-3.5,1.3c-0.7,0.9-0.5,2.1,0.4,2.8c0.2,0.1,0.3,0.2,0.5,0.3
			c-0.3,1.2-0.9,2.2-1.7,3.1c-1.8-0.1-4.6-0.4-6.2-1.9c-0.5-0.5-1.1-0.9-1.7-1.2v-0.9c0.9-0.5,1.7-1.1,2.3-2
			c0.6-0.8,0.9-1.8,0.9-2.8c0-0.1,0-0.2-0.1-0.4c0,0,0-0.1,0-0.1c0-0.1,0-0.2-0.1-0.2c0,0,0-0.1,0-0.1c0-0.1-0.1-0.2-0.1-0.2
			c0,0,0-0.1,0-0.1c0-0.1-0.1-0.2-0.1-0.3c0,0,0-0.1-0.1-0.1c0-0.1-0.1-0.1-0.1-0.2s-0.1-0.1-0.1-0.1l-0.1-0.1c0,0-0.1-0.1-0.1-0.1
			c0,0-0.1-0.1-0.1-0.1c-0.1-0.1-0.2-0.2-0.3-0.3l0,0c-0.1-0.1-0.1-0.1-0.2-0.2l-0.1,0c-0.1-0.1-0.1-0.1-0.2-0.1c0,0,0,0,0,0
			c-0.8-0.5-1.7-0.7-2.6-0.6c-2.2,0.1-3.9,1.9-3.8,4c0.1,1.8,1.3,3.3,3,3.7c-0.4,0.2-0.7,0.4-1.2,0.5l0.1,0l0,0c0,0,0,0,0.1,0l0,0
			l0.1,0.1l0,0c0,0,0.1,0,0.1,0.1l0,0c0.1,0,0.2,0.1,0.3,0.1l0.1,0l0.2,0l0.1,0c0.1,0,0.1,0,0.2,0c0,0,0,0,0,0v0.5c0,0,0,0-0.1,0
			c-0.7,0.1-1.2,0.3-1.4,1s0,0.9,0.4,1.4c-0.3,0.5-1.1,0.7-0.1,1.9c-0.1,0.5,0.1,1.1,0.7,1.3c0.2,0.1,0.4,0.1,0.6,0.1v8.7
			c-0.5,0.2-0.9,0.6-1.1,1.1c0,0-0.5-1.1-0.5,1.1c0.6-0.5,0.4,0.5,0.4,0.5c-0.8,1,0.2,1,0.2,1c0.7-0.7,0.5,0.3,0.5,0.3
			c-0.1,0.6,0.1,1.2,0.5,1.7v6.6h-0.6l0,1.8h1c-0.6,0.2-0.9,0.8-0.9,1.4c0.1,0.8,0.8,1.4,1.6,1.3c0.8,0,1.4-0.7,1.4-1.5c0,0,0,0,0,0
			c-0.1-0.5-0.4-1-0.9-1.2H35v-1.8h-0.6v-5.9c0.1,0.1,0.2,0.1,0.4,0.1c0.1,0,0.1,0,0.2,0c0,0,0,0,0.1,0c-0.1-0.5,0-0.9,0.3-1.3
			c0.2-0.4,0.6-0.6,1-0.8c1.2-0.6,2.8-0.4,3.2,0.5c3-0.8,5.6-3.8,5.6-3.8l1.5,2.5c-3.1,1.1-10,7-5.2,9.1c0,0.6-0.1,5.1-2.9,4.7
			c-4.1-0.5-5.1,1.2-4.3,3.1c-0.3,0.8,0.1,1.8,0.9,2.2c-0.2-0.9,0.3-1.7,2-1.7c0,1.7,1.1,2,1.1,2c-0.1-1,0.7-1.9,1.7-2
			c0.1,0,0.2,0,0.2,0c0,1.2,1.4,1.7,1.4,1.7c-0.2-0.7,0.2-1.4,1-1.6c0.1,0,0.2,0,0.3,0c4-0.7,0.2-4.8,6.3-5.9c0,0-3-0.5-3-2.1
			c0-1.5,2.7-2.5,3.7-2.5c1.9,3.7,4,3.7,4.6,3.7c0.9,1,0.6,4.2-0.7,4.1c-4.5-0.2-4.4,2.5-3.8,3.1c0,0.7,0.3,1.3,0.8,1.7
			c0-1.1,1.1-1.5,2.5-1.4c-0.1,1.4,0.8,1.6,0.8,1.6c-0.1-0.8,0.6-1.6,1.4-1.6c0.1,0,0.3,0,0.4,0c0,0.6,0.4,1.1,0.9,1.3
			c-0.1-0.6,0.4-1.2,1-1.2c0.1,0,0.1,0,0.2,0c2.5,0-1.1-5.4,3.7-10.6c-4.3,2-6.6-3-6.6-3.9c2.2,2.6,9.3,3.1,9.3-1.3
			c0-4.2-4.6-5.8-2.5-7.4c1.3-0.9,3.7,1,2.3,2.9C66,47.4,67.1,45.5,66.5,43.8 M39.1,43.9c-1.6,0.9-2.7,2.2-4.2,2.7
			c-0.2,0.1-0.4,0.1-0.6,0.1v-8.2c0.9,0.1,1.8,0.3,2.6,0.7c1.2,0.6,1.2,2-0.3,2.3c0.9,1.8,4.2,0.9,4.9-0.5c0.3,0,0.7,0.6,0.9,1.2
			C42.1,42.3,41.1,42.8,39.1,43.9L39.1,43.9z M57.2,30.4c-0.2,0.2-0.4,0.5-0.5,0.7c0.6,1,1.9,1.3,2.9,0.7c0.7-0.4,1.1-1.2,1-2
			c0,0,0-0.1,0-0.1c-0.3,0.7-1,1.2-1.7,1.2C58.3,30.9,57.7,30.7,57.2,30.4z"/>
		<path class="st3" d="M31.1,25.4C31.1,25.4,31.1,25.4,31.1,25.4L31.1,25.4c0,0,0-0.1,0.1-0.1C31.2,25.3,31.1,25.4,31.1,25.4
			 M31.2,59.8C31.2,59.8,31.2,59.8,31.2,59.8L31.2,59.8L31.2,59.8L31.2,59.8z M31.1,21.9L31.1,21.9z M30.5,59.6h1
			c-0.1,0.1-0.2,0.1-0.3,0.2c0.1,0,0.2-0.1,0.3-0.1c0.5,0,0.9,0.4,0.9,0.9c0,0.5-0.4,0.9-0.9,0.9c-0.4,0-0.8-0.3-0.9-0.6V61
			c0.1,0.8,0.8,1.4,1.6,1.3c0.8,0,1.4-0.7,1.4-1.5c0,0,0,0,0,0c-0.1-0.5-0.4-1-0.9-1.2h0.9v-1.8h-0.6v-5.9c-0.6-0.3-0.9-0.9-0.7-1.5
			c0.3,0,0.6,0.1,0.9,0.2c-0.3,0.7,0.5,1.5,0.5,1.5c-0.1-0.5,0-0.9,0.3-1.3c0.2-0.4,0.6-0.6,1-0.8c1.2-0.6,2.8-0.4,3.2,0.5
			c3-0.8,5.6-3.8,5.6-3.8l1.5,2.5c3.5,0,2.3-2.6,2-2.8c1,0,1.9,0.8,1.9,1.9c0,0,0,0,0,0c0,3.2-9.3,3.7-9.3,7.5
			c0.1,1,0.7,1.9,1.6,2.3c0,3.5-2.4,5.7-4.1,5.7c-2.7,0-4.7-0.5-4.7,2.4h0.9c-0.9,0.9-0.1,2.2-0.1,2.2c-0.2-0.9,0.3-1.7,2-1.7h1.1
			c-0.5,0.6-0.5,1.4,0,2c-0.1-1,0.7-1.9,1.7-2c0.1,0,0.2,0,0.3,0h0.8c-0.2,0.2,0.1,1.2,0.6,1.7c-0.2-0.7,0.2-1.4,1-1.6
			c0.1,0,0.2,0,0.3,0c4-0.7,0.2-4.8,6.3-5.9c0,0-3-0.5-3-2.1c0-1.5,2.7-2.5,3.7-2.5c0.7-0.1,1.4-0.1,2,0c0.2,2.4,3,2.3,3.6,2.3
			c2.3,2.3-0.6,6-0.6,6c-3.6,0-5,0.5-5,2.6h0.7c-0.3,0.5-0.3,1.2,0.1,1.7c0-1.1,1.1-1.5,2.5-1.4h0.7c-0.3,0.5-0.3,1.2,0.1,1.6
			c-0.1-0.8,0.6-1.6,1.4-1.6c0.1,0,0.3,0,0.4,0h0.6c-0.2,0.2,0,1,0.3,1.3c-0.1-0.6,0.4-1.2,1-1.3c0.1,0,0.1,0,0.2,0
			c2.5,0-1.1-5.4,3.7-10.6c-4.3,2-6.6-3-6.6-3.9c2.2,2.6,9.3,3.1,9.3-1.3c0-3.5-3.3-5.2-3-6.6c0.1-1.2,1.1-2,2.3-1.9
			c1.2,0.1,2,1.1,1.9,2.3c-0.1,0.8-0.6,1.5-1.3,1.8l0,0c0,0,0,0,0,0c2-0.8,3.2-2.7,2.5-4.4s-2.8-2.4-4.8-1.6c-0.8,0.3-1.5,0.8-2,1.5
			c1.3-3.8,6.8-4.6,6.8-8.2c0-5.9-8.4-4.3-7.2,0c0-0.1,0-0.1,0-0.2c0.2-2.4,4.5-2.9,4.5,0.2c0,2.7-5.5,4.2-5.5,7.8
			c0,3.7,4.1,4.7,4.1,8.6c0,0.5-0.2,2.5-3,2.5c-2.1,0.1-4-1.3-4.6-3.4l0,0c-1.3-2.6-0.8-6.6-2.3-8.2l0.1-1.7
			c1.2,0.5,2.6-0.1,3.1-1.4c0.4-0.9,0.1-1.9-0.6-2.6c0,1.4-3,1.3-3-1.3c0-3.6,3.4-1.7,3.6-0.9c-0.2-1-0.2-2,0-2.9
			c-1.8,0.6-2-0.5-1.8-0.9c0.3-0.5,0.6-1,1.3-1c1,0,1,0.4,0.9,0.9c0.4-0.7,0.9-1.4,1.4-1.9l0-0.7l0.5,0.2l0.5-0.8
			c-0.6-1.1-1.3-0.6-1.9-2c-0.5-0.1-6.5-0.7-6.3-3.6c-0.5,0-2,1.9-1,2.8h-1.3c-0.7,0.1-2.2-0.4-3.3,1.7c2.5-2.5,4.1,3.4-0.5,3.4l0,0
			c-0.7,0-1.3-0.3-1.3-0.8c-0.5,2,2.4,2.6,2.4,2.6c-0.4,1.6-1.2,3.1-2.1,4.5c0.5,0.5,0.6,3.3-1.6,3.3c0.8-2.1-1.5-3.9-3.8-5.1l0,0
			c-0.4-0.2-0.8-0.3-1.2-0.6c-0.8-0.4-1.7-0.7-2.5-1v-1.7c0.9-0.5,1.7-1.1,2.3-2c0.6-0.8,0.9-1.8,0.9-2.8c0-0.1,0-0.2-0.1-0.4
			c0,0,0-0.1,0-0.1c0-0.1,0-0.2-0.1-0.2c0,0,0-0.1,0-0.1c0-0.1-0.1-0.2-0.1-0.2c0,0,0-0.1,0-0.1c0-0.1-0.1-0.2-0.1-0.3
			c0,0,0-0.1-0.1-0.1c0-0.1-0.1-0.1-0.1-0.2s-0.1-0.1-0.1-0.1s-0.1-0.1-0.1-0.1s-0.1-0.1-0.1-0.1c0,0-0.1-0.1-0.1-0.1
			c-0.1-0.1-0.2-0.2-0.3-0.3c0,0,0,0,0,0c-0.1-0.1-0.1-0.1-0.2-0.2c0,0,0,0-0.1,0c-0.1-0.1-0.1-0.1-0.2-0.1l0,0
			c-0.8-0.5-1.7-0.7-2.6-0.6c-0.2,0-0.4,0-0.6,0.1c-1.5,0.7-2.4,2.2-2.3,3.9c-0.1,1.5,0.7,3,2,3.8l0.1,0c-0.4,0.2-0.8,0.4-1.2,0.5
			c0,0,0,0,0.1,0l0,0l0.1,0c0,0,0,0,0,0c0,0,0.1,0,0.1,0.1c0,0,0,0,0,0c0,0,0.1,0,0.1,0l0,0c0.1,0,0.2,0.1,0.3,0.1l0.1,0
			c0,0,0.1,0,0.1,0l0.1,0c0.1,0,0.1,0,0.2,0c0,0,0,0,0,0c0.3,0,0.6,0,0.9-0.1v1c-0.3-0.1-0.7-0.2-0.9-0.4L31,31
			c-0.7,0.1-1.2,0.3-1.4,1c-0.2,0.7,0,0.9,0.4,1.4c-0.3,0.5-1.1,0.7-0.1,1.9c-0.1,0.5,0.1,1.1,0.7,1.3c0.2,0.1,0.4,0.1,0.6,0.1
			c0.6,0,1,0.5,1,1.1c0,0,0,0,0,0v7.5c0.3,0,0.7,0.1,1.1,0.1v-8.2c0.9,0.1,1.8,0.3,2.6,0.7c0,0,0,0,0,0l0,0c0.1,0,0.2,0,0.3,0.1
			c0.7,0,1.2,0.6,1.1,1.2c0,0.7-0.6,1.2-1.2,1.1c-0.2,0-0.4-0.1-0.6-0.2c0.9,1.8,4.2,0.9,4.9-0.5c0.3,0,0.7,0.6,0.9,1.2
			c0.9,0.3,1.9,0.4,2.8,0.3c0,0-8.1,5.2-10.5,5.2c-1,0-3.2,0-3.2,0.8c-0.6,0-1.5,1-1.5,1.6c0.3-0.3,0.7-0.4,1.1-0.5
			c0.3,0,0.5,0,0.8,0.1c-0.5,0.5-0.9,1.1-1,1.8c0.7-0.7,1-0.7,1-0.7s0.7-0.1,1,0.2c-0.3,0.4-0.5,1-0.5,1.5c0,0,0.4-0.8,0.9-0.8v7.8
			c0,0.2-1.1,0.5-1.5,0.5 M30.9,36c-0.2,0-0.3-0.3-0.3-0.3s0.1-0.4,0.3-0.4c0.5,0,1,0.1,1.4,0.3C31.8,35.8,31.4,36,30.9,36L30.9,36z
			 M30.6,34.7c-0.3,0-0.4-0.4-0.4-0.5s0.2-0.5,0.4-0.5c0.7,0.1,1.3,0.3,1.9,0.6C31.9,34.6,31.2,34.7,30.6,34.7L30.6,34.7z
			 M30.4,33.1c-0.3-0.1-0.3-0.5-0.3-0.6s0.3-0.5,0.6-0.4c0.7,0.2,1.4,0.6,1.9,1.1C31.9,33.2,31.2,33.2,30.4,33.1z M32.6,28.4
			c0.1-0.3,0.1-0.7,0-1.1h0c-0.8,0-1.5-0.7-1.5-1.5c0-0.1,0-0.3,0.1-0.4l0,0c0,0,0,0,0,0c0.2-0.8,1.1-1.3,1.9-1
			c0.6,0.2,1.1,0.8,1.1,1.5C34,26.9,33.4,27.8,32.6,28.4L32.6,28.4z"/>
		<path class="st5" d="M55.4,29.7c0.6,1,1.9,1.3,2.9,0.7c0.7-0.4,1.1-1.2,1-2c0,0,0-0.1,0-0.1c-0.3,0.7-1,1.2-1.7,1.2
			c-0.6,0.1-1.2-0.1-1.7-0.5C55.7,29.3,55.5,29.5,55.4,29.7"/>
		<path class="st1" d="M52.6,25.8l0.7,0l-0.4,0.5C52.9,26.3,52.4,26.5,52.6,25.8 M50.8,25.8h1.1c0,0,0,0.9,0.7,0.9L52.4,27
			C52.4,27,50.4,26.5,50.8,25.8L50.8,25.8z"/>
		<path class="st6" d="M32.7,33.1c-0.6-0.5-1.2-0.9-1.9-1.1c-0.3-0.1-0.5,0.3-0.6,0.4s0,0.6,0.3,0.6C31.2,33.2,31.9,33.2,32.7,33.1
			 M32.6,34.4c-0.6-0.4-1.2-0.6-1.9-0.6c-0.3,0-0.4,0.3-0.4,0.5s0.1,0.5,0.4,0.5C31.2,34.7,31.9,34.6,32.6,34.4L32.6,34.4z
			 M31.1,30.5V31c0.3,0.2,0.6,0.3,0.9,0.4v-1C31.7,30.5,31.4,30.5,31.1,30.5L31.1,30.5z M30.8,35.3c-0.2,0-0.3,0.3-0.3,0.4
			s0.1,0.4,0.3,0.3c0.5,0,1-0.2,1.4-0.4C31.8,35.4,31.3,35.3,30.8,35.3L30.8,35.3z M29.9,48.2c-0.5,0.5-0.6,1.3-0.2,2
			c0.1-0.7,0.5-1.3,1-1.8C30.4,48.3,30.1,48.2,29.9,48.2L29.9,48.2z M32.4,50.4c-0.1,0.8,0.3,1.5,1.1,1.7c0.1,0,0.1,0,0.2,0h0.1
			c0,0-0.8-0.7-0.5-1.5C33,50.5,32.7,50.4,32.4,50.4L32.4,50.4z M30.9,29.5c-1.3-0.8-2.1-2.2-2-3.8c-0.1-1.6,0.8-3.1,2.3-3.9
			c-2.1,0.4-3.5,2.4-3.1,4.5C28.3,28,29.4,29.2,30.9,29.5L30.9,29.5z M43.6,25.3c0.7-0.2,1.5,0.3,1.7,1c0,0.1,0,0.2,0,0.2
			c0,1.1-0.9,2.1-2,2.2c-0.1,0-0.1,0-0.2,0l0,0C47.7,28.8,46.1,22.9,43.6,25.3L43.6,25.3z M40.6,38.5c2.2,0,2-2.9,1.6-3.3
			c1-1.4,1.7-2.9,2.1-4.5c0,0-2.9-0.6-2.4-2.6l0,0l0,0c-0.6,0.9-0.4,2.1,0.5,2.8c0.1,0.1,0.3,0.2,0.5,0.2c-0.3,1.2-0.9,2.2-1.7,3.1
			c-1.5,0-2.9-0.3-4.3-0.8C39,34.6,41.3,36.4,40.6,38.5L40.6,38.5z M32,24.8c0.6-0.1,1.1,0.3,1.1,0.9c0,0.6-0.4,1-0.9,1.1
			c0,0,0,0,0,0c-0.6,0.1-1.1-0.3-1.1-0.9c0,0.8,0.7,1.5,1.5,1.5h0c0.1,0.3,0.1,0.7,0,1.1c0.8-0.6,1.4-1.5,1.5-2.6
			c0-0.8-0.7-1.5-1.5-1.5c-0.7,0-1.3,0.5-1.5,1.1C31.3,25.1,31.6,24.8,32,24.8z M48.1,23.7c-1-1,0.5-2.8,1-2.8
			c-0.6,0-3.1,1.7-2.3,2.8H48.1z M35.4,40.1c0.6,0.3,1.3,0.2,1.6-0.4c0.3-0.6,0.2-1.3-0.4-1.6C36.5,38,36.3,38,36,38
			c-0.1,0-0.2-0.1-0.3-0.1C36.9,38.5,36.8,39.8,35.4,40.1z M33.1,31.8c0.9,0.3,1.7,0.6,2.5,1c-0.3-0.2-0.5-0.4-0.8-0.6
			c-0.5-0.5-1.1-0.9-1.7-1.2V31.8L33.1,31.8z M33.5,46.3c2.4,0,10.5-5.2,10.5-5.2c-1,0-1.9-0.1-2.8-0.3c-0.5,0.2-1.4,0.7-3.4,1.9
			c-1.6,1-2.7,2.2-4.2,2.7c-0.2,0.1-0.4,0.1-0.6,0.1c-0.3,0-0.7-0.1-1.1-0.1v-7.5c0.1-0.6-0.4-1-0.9-1.1c0,0,0,0,0,0v8.7
			c-0.5,0.2-0.9,0.6-1.1,1.1c0,0-1.2-0.2-1.2,2.1c0-0.6,0.9-1.6,1.5-1.6C30.3,46.3,32.5,46.3,33.5,46.3L33.5,46.3z M53.8,58.3
			c-0.6,0-3.3,0.1-3.6-2.3c-0.7-0.1-1.4-0.2-2-0.1c1.9,3.7,4,3.7,4.6,3.7c0.9,1,0.6,4.2-0.7,4.1c-4.5-0.2-4.4,2.5-3.8,3.1
			c0-2.1,1.4-2.6,5-2.6C53.2,64.3,56.1,60.6,53.8,58.3z M54.7,67.2h-0.6c0,0.6,0.4,1.1,0.9,1.3C54.7,68.2,54.5,67.4,54.7,67.2z
			 M49,68.6c-0.4-0.5-0.4-1.1-0.1-1.7h-0.7C48.2,67.6,48.5,68.2,49,68.6L49,68.6z M62.5,34.3c0-3.2-4.3-2.7-4.5-0.2
			c0.1-0.9,0.8-1.5,1.7-1.4c0.8,0.1,1.5,0.8,1.4,1.6c0,2.3-5.4,3.8-5.4,7.7c0,4.3,4.3,4.7,3.8,8.6c-0.2,0.9-0.9,1.6-1.8,1.6
			c-1.7,0.2-3.4-0.8-4.2-2.3c0.6,2.1,2.5,3.5,4.6,3.4c2.7,0,3-2,3-2.5c0-3.9-4.1-4.8-4.1-8.6C57,38.5,62.5,37,62.5,34.3L62.5,34.3z
			 M30.6,49.5c-0.1,0.6,0.1,1.2,0.5,1.7c0-0.5,0.2-1.1,0.5-1.5C31.3,49.4,30.6,49.5,30.6,49.5z M61.9,42.8c-1.1,0-2,0.8-2.1,1.9
			c0.1-0.3,0.3-0.6,0.6-0.8c1.3-0.9,3.7,0.9,2.3,2.9c1.1-0.4,1.6-1.7,1.2-2.7C63.5,43.3,62.7,42.8,61.9,42.8L61.9,42.8z M52.2,67.2
			h-0.7c-0.1,1.4,0.8,1.6,0.8,1.6C51.9,68.4,51.9,67.7,52.2,67.2z M31.5,59.8c-0.1,0-0.2,0-0.3,0.1c-0.4,0.3-0.6,0.7-0.5,1.1
			c0.2,0.5,0.7,0.7,1.1,0.6c0.5-0.2,0.7-0.7,0.6-1.1C32.3,60,31.9,59.8,31.5,59.8z M36.7,66.5h-1.1c0,1.7,1.1,2,1.1,2
			C36.2,68,36.2,67.1,36.7,66.5L36.7,66.5z M40,55.8c0-3.9,9.3-4.3,9.3-7.5c0-1-0.9-1.9-1.9-1.9c0,0,0,0,0,0c0.2,0.2,1.4,2.8-2,2.8
			c-3.1,1.1-10,7-5.2,9.1c0,0.6-0.1,5.1-2.9,4.7C33,62.4,32,64.1,32.8,66c0-2.9,2-2.4,4.7-2.4c1.7,0,4.1-2.1,4.1-5.7
			C40.7,57.7,40,56.8,40,55.8L40,55.8z M32.1,58.2v-7.8c-0.5,0-0.9,0.8-0.9,0.8v6.6h-0.6v0.8C31,58.6,32,58.4,32.1,58.2L32.1,58.2z
			 M33.7,68.2c0,0-0.8-1.3,0.1-2.2h-0.9C32.5,66.9,32.9,67.8,33.7,68.2z M39.4,66.5h-0.8c0,1.2,1.4,1.7,1.4,1.7
			C39.5,67.7,39.2,66.8,39.4,66.5L39.4,66.5z"/>
		<line class="st7" x1="77.2" y1="36.1" x2="77.2" y2="36.1"/>
		<path class="st1" d="M13.5,53.6l-0.1-0.2l0-0.2c-0.1-0.6-0.2-1.6-1-1.8c-0.2,0-0.5,0-0.7,0.1c0.1-0.2,0.1-0.5,0-0.7
			c-0.3-0.8-1.4-0.8-1.9-0.8H9.6l-0.2,0c-0.6-0.1-1.6-0.3-2,0.4c-0.1,0.2-0.2,0.4-0.1,0.7C7.1,51,6.9,51,6.7,51
			c-0.8,0-1.1,1-1.3,1.6l-0.1,0.2l-0.1,0.1c-0.3,0.5-0.8,1.4-0.2,2c0.2,0.2,0.4,0.3,0.6,0.3c-0.2,0.1-0.3,0.3-0.4,0.6
			c-0.2,0.8,0.6,1.4,1.1,1.7l0.1,0.1l0.1,0.1c0.4,0.4,1.1,1.2,1.9,0.9c0.2-0.1,0.4-0.3,0.5-0.5c0.1,0.2,0.2,0.4,0.4,0.5
			c0.7,0.5,1.5-0.2,2-0.5l0.1-0.1l0.1-0.1c0.5-0.2,1.5-0.7,1.4-1.5c0-0.2-0.1-0.4-0.3-0.6c0.2,0,0.5-0.1,0.6-0.2
			C14,55.1,13.7,54.1,13.5,53.6"/>
		<path class="st5" d="M9.9,54.3c4.6,2.7,3.2-0.3,3.1-0.7S12.8,49.8,9.9,54.3"/>
		<path class="st5" d="M9.6,54.9c-1.2,5.3,1.3,3,1.6,2.7S14.8,56.4,9.6,54.9"/>
		<path class="st5" d="M8.8,54.9c-5.4,0.5-2.4,2.1-2.1,2.4S9.1,60.3,8.8,54.9"/>
		<path class="st5" d="M8.7,54.1c-2.1-4.9-2.8-1.7-2.9-1.2S3.6,56,8.7,54.1"/>
		<path class="st1" d="M85.2,52.9l-0.1-0.1l-0.1-0.2C84.9,52,84.6,51,83.8,51c-0.2,0-0.5,0.1-0.7,0.2c0-0.2,0-0.5-0.1-0.7
			c-0.4-0.7-1.5-0.5-2-0.4l-0.2,0h-0.2c-0.6,0-1.6,0-1.9,0.8c-0.1,0.2-0.1,0.5,0,0.7c-0.2-0.1-0.4-0.1-0.7-0.1
			c-0.8,0.2-0.9,1.2-1,1.8l0,0.2l-0.1,0.2c-0.2,0.5-0.5,1.5,0.1,2.1c0.2,0.1,0.4,0.2,0.6,0.2c-0.2,0.2-0.3,0.4-0.3,0.6
			c-0.1,0.8,0.9,1.3,1.4,1.5l0.1,0.1l0.1,0.1c0.5,0.3,1.3,1,2,0.5c0.2-0.1,0.3-0.3,0.4-0.5c0.1,0.2,0.3,0.4,0.5,0.5
			c0.8,0.3,1.5-0.4,1.9-0.9l0.1-0.1l0.1-0.1c0.5-0.3,1.3-0.9,1.1-1.7c-0.1-0.2-0.2-0.4-0.4-0.6c0.2,0,0.4-0.2,0.6-0.3
			C86,54.3,85.5,53.4,85.2,52.9"/>
		<path class="st5" d="M81.1,53.8c-4-3.6-0.7-3.1-0.3-3.2S84.5,49.6,81.1,53.8"/>
		<path class="st5" d="M80.6,54.3c-4.6,2.7-3.2-0.3-3.1-0.7S77.6,49.8,80.6,54.3"/>
		<path class="st5" d="M80.9,54.9c1.2,5.3-1.3,3-1.6,2.7S75.7,56.4,80.9,54.9"/>
		<path class="st5" d="M81.6,54.9c5.4,0.5,2.4,2.1,2.1,2.4S81.4,60.3,81.6,54.9"/>
		<path class="st5" d="M81.8,54.1c2.1-4.9,2.8-1.7,2.9-1.2S86.8,56,81.8,54.1"/>
		<path class="st1" d="M82.8,54.3c0,0,0-0.1,0-0.1c0.4-0.3,0.9-0.7,0.9-0.7l0-0.1l-1.1,0.2c-0.3-0.4-0.7-0.7-1.2-0.8
			c-0.2-0.5-0.3-1-0.3-1l-0.1,0c0,0-0.1,0.5-0.1,1c-0.3,0.1-0.6,0.3-0.8,0.5c-0.1,0.1-0.2,0.3-0.3,0.5h-1.1l0,0.1l1,0.5
			c0,0,0,0.1,0,0.1c0,0.4,0.2,0.8,0.6,1.1c-0.2,0.5-0.4,1.1-0.4,1.1l0.1,0.1c0,0,0.4-0.5,0.8-0.8c0.2,0.1,0.4,0.1,0.6,0.1
			c0.2,0,0.4-0.1,0.6-0.2l1,0.7l0.1-0.1c0,0-0.3-0.5-0.5-1C82.7,55.1,82.9,54.7,82.8,54.3"/>
		<path class="st5" d="M81.1,53.5c-0.3,0-0.5,0.1-0.6,0.3c-0.2,0.2-0.2,0.4-0.2,0.7c0,0.5,0.5,0.9,1,0.9c0.5,0,0.9-0.5,0.9-1
			S81.7,53.5,81.1,53.5C81.1,53.5,81.1,53.5,81.1,53.5"/>
		<path class="st5" d="M9.3,53.8c4-3.6,0.7-3.1,0.3-3.2S6,49.6,9.3,53.8"/>
		<path class="st1" d="M10.8,54.5c0.5-0.2,1-0.5,1-0.5l0-0.1h-1.1c-0.1-0.2-0.2-0.3-0.3-0.5c-0.2-0.3-0.5-0.4-0.8-0.5l-0.1-1l-0.1,0
			c0,0-0.2,0.5-0.3,1c-0.5,0-1,0.3-1.2,0.8l-1.1-0.2l0,0.1c0,0,0.5,0.3,0.9,0.7c0,0,0,0.1,0,0.1c0,0.4,0.1,0.8,0.4,1.2
			c-0.3,0.5-0.5,1-0.5,1l0.1,0.1l1-0.7C8.7,56,8.9,56,9.1,56c0.2,0,0.4,0,0.6-0.1c0.4,0.4,0.8,0.8,0.8,0.8l0.1-0.1l-0.4-1.1
			c0.3-0.3,0.5-0.7,0.6-1.1C10.8,54.5,10.8,54.5,10.8,54.5"/>
		<path class="st5" d="M10,53.8c-0.2-0.2-0.4-0.3-0.6-0.3c-0.5,0-1,0.3-1,0.9c0,0.5,0.3,1,0.9,1s1-0.3,1-0.9
			C10.2,54.3,10.1,54,10,53.8"/>
		<path class="st1" d="M9.9,31.4c-2.3-0.4-4.4,1.1-4.8,3.4c-0.4,2.3,1.1,4.4,3.4,4.8c2.3,0.4,4.4-1.1,4.8-3.4
			C13.7,33.9,12.2,31.8,9.9,31.4"/>
		<path class="st5" d="M10.8,34.5c0,0-0.1-0.1-0.2-0.1c-0.3-0.2-1-0.7-1-0.7l-0.3-0.2c-0.3-0.2-0.6-0.4-0.8-0.5
			c-0.1-0.1-0.2-0.1-0.3-0.2c-0.4-0.2-0.8-0.3-1.2-0.4c-0.3,0.3-0.6,0.6-0.9,0.9c1.5,0.6,2.8,1.4,4.1,2.3
			C10.4,35.4,10.8,34.6,10.8,34.5"/>
		<path class="st5" d="M9.9,36.7c0-0.1,0.2-0.6,0.3-0.8c-1.3-0.9-2.7-1.7-4.2-2.3c-0.2,0.3-0.3,0.6-0.4,0.9
			C6.2,35.4,7.8,36.2,9.9,36.7"/>
		<path class="st5" d="M9.6,33.3c0.8-0.4,1.6-0.4,2.4-0.1c-0.3-0.3-0.6-0.6-1-0.9c-0.8-0.2-1.7,0-2.3,0.4C9.1,33,9.3,33.1,9.6,33.3"
			/>
		<path class="st5" d="M6.4,37.2c0.1,0.1,0.2,0.1,0.3,0.2c0.2,0.1,0.5,0.2,0.8,0.3c0.1,0,0.2,0.1,0.3,0.1c0.4,0.1,1.3,0.4,1.4,0.4
			L9.8,37c-1.5-0.3-3-1-4.2-2c-0.1,0.4,0,0.8,0.1,1.2C5.8,36.6,6.1,37,6.4,37.2"/>
		<path class="st5" d="M9.3,38.6L9,38.5c-0.3-0.1-0.6-0.2-1-0.3c0.2,0.3,0.4,0.6,0.7,0.8c0.4,0,0.7,0,1.1,0
			C9.6,38.9,9.5,38.8,9.3,38.6"/>
		<path class="st5" d="M12.7,34.4c-0.1-0.2-0.2-0.5-0.3-0.7c-0.8-0.4-1.6-0.5-2.4-0.1l1.2,0.8c0.2,0,0.4,0,0.7,0c0.1,0,0.2,0,0.3,0
			C12.3,34.3,12.5,34.3,12.7,34.4"/>
		<path class="st5" d="M12.1,34.6c-0.1,1.6-0.7,3.1-1.7,4.3c1.7-0.6,2.8-2.4,2.4-4.2C12.5,34.7,12.3,34.6,12.1,34.6"/>
		<path class="st5" d="M8.5,32.6C9,32.2,9.6,32,10.3,32c-0.2,0-0.3-0.1-0.5-0.1c-0.8-0.1-1.6,0-2.4,0.4C7.8,32.3,8.2,32.5,8.5,32.6"
			/>
		<path class="st5" d="M11.1,34.6c-0.3,0.6-0.4,0.9-0.6,1.2c0,0.1-0.1,0.2-0.1,0.3c-0.1,0.2-0.3,0.7-0.3,0.7l-0.1,0.3l-0.5,1.3
			c0.1,0.2,0.3,0.3,0.5,0.5c1.1-1.2,1.7-2.7,1.7-4.2C11.6,34.6,11.3,34.6,11.1,34.6"/>
		<path class="st5" d="M7.6,38.1c-0.3-0.1-0.5-0.2-0.8-0.3c0.1,0.3,0.2,0.5,0.4,0.7c0.3,0.2,0.6,0.3,0.9,0.4
			C7.9,38.7,7.7,38.4,7.6,38.1"/>
		<path class="st5" d="M6.5,37.6c-0.2-0.1-0.3-0.2-0.5-0.3c0.2,0.3,0.4,0.6,0.6,0.8C6.6,37.9,6.5,37.8,6.5,37.6"/>
		<path class="st1" d="M76.7,36.2c0.4,2.3,2.6,3.8,4.8,3.4c2.3-0.4,3.8-2.6,3.4-4.8c-0.4-2.3-2.6-3.8-4.8-3.4
			C77.8,31.8,76.3,33.9,76.7,36.2"/>
		<path class="st5" d="M79.2,34.5l0.2-0.1c0.3-0.2,1-0.7,1-0.7l0.3-0.2c0.3-0.2,0.6-0.4,0.8-0.5c0.1-0.1,0.2-0.1,0.3-0.2
			c0.4-0.2,0.8-0.3,1.2-0.4c0.3,0.3,0.6,0.6,0.9,0.9c-1.5,0.6-2.8,1.4-4.1,2.3C79.6,35.4,79.2,34.6,79.2,34.5"/>
		<path class="st5" d="M80.1,36.7c0-0.1-0.2-0.6-0.3-0.8c1.3-0.9,2.7-1.7,4.2-2.3c0.2,0.3,0.3,0.6,0.4,0.9
			C83.8,35.4,82.2,36.2,80.1,36.7"/>
		<path class="st5" d="M80.4,33.3c-0.8-0.4-1.6-0.4-2.4-0.1c0.3-0.3,0.6-0.6,1-0.9c0.8-0.2,1.6,0,2.3,0.4
			C80.9,33,80.7,33.1,80.4,33.3"/>
		<path class="st5" d="M83.6,37.2c-0.1,0.1-0.2,0.1-0.3,0.2c-0.2,0.1-0.5,0.2-0.8,0.3c-0.1,0-0.2,0.1-0.3,0.1
			c-0.4,0.1-1.3,0.4-1.4,0.4c0,0-0.4-0.9-0.5-1.2c1.5-0.3,3-1,4.2-2c0,0.4,0,0.8-0.1,1.2C84.2,36.6,83.9,37,83.6,37.2"/>
		<path class="st5" d="M80.7,38.6l0.3-0.1c0.3-0.1,0.7-0.2,1-0.3c-0.2,0.3-0.4,0.6-0.7,0.8c-0.4,0-0.7,0-1.1,0
			C80.4,38.9,80.5,38.8,80.7,38.6"/>
		<path class="st5" d="M77.3,34.4c0.1-0.2,0.2-0.5,0.3-0.7c0.8-0.4,1.6-0.5,2.4-0.1l-1.2,0.8c-0.2,0-0.4,0-0.7,0c-0.1,0-0.2,0-0.3,0
			C77.7,34.3,77.5,34.3,77.3,34.4"/>
		<path class="st5" d="M77.9,34.6c0.1,1.6,0.7,3.1,1.7,4.3c-1.3-0.4-2.2-1.5-2.4-2.8c-0.1-0.4-0.1-0.9,0-1.3
			C77.5,34.7,77.7,34.6,77.9,34.6"/>
		<path class="st5" d="M81.5,32.6C81,32.2,80.4,32,79.7,32c0.2-0.1,0.3-0.1,0.5-0.1c0.8-0.1,1.6,0,2.4,0.4
			C82.2,32.3,81.8,32.5,81.5,32.6"/>
		<path class="st5" d="M78.9,34.6c0.3,0.6,0.4,0.9,0.6,1.2l0.1,0.3c0.1,0.2,0.3,0.7,0.3,0.7l0.1,0.3l0.5,1.3
			c-0.1,0.2-0.3,0.3-0.5,0.5c-1.1-1.2-1.7-2.7-1.7-4.2C78.4,34.6,78.7,34.6,78.9,34.6"/>
		<path class="st5" d="M82.4,38.1c0.3-0.1,0.5-0.2,0.8-0.3c-0.1,0.3-0.2,0.5-0.4,0.7c-0.3,0.2-0.6,0.3-0.9,0.4
			C82.1,38.7,82.3,38.4,82.4,38.1"/>
		<path class="st5" d="M83.5,37.6c0.2-0.1,0.3-0.2,0.5-0.3c-0.2,0.3-0.4,0.6-0.6,0.8C83.4,37.9,83.5,37.8,83.5,37.6"/>
	</g>
</g>
</svg>
